<svg
    version="1.1"
    xmlns="http://www.w3.org/2000/svg"
    xmlns:xlink="http://www.w3.org/1999/xlink"
    x="0px"
    y="0px"
    viewBox="0 0 256 256"
    enable-background="new 0 0 256 256"
    xml-space="preserve"
    width="36"
    height="36"
>
    <g>
        <g>
            <g>
                <path
                    fill="#0075BA"
                    d="M121,16.4v6.4h-6.4h-6.4v6.7v6.7h6.4h6.4v4.9c0,5.6,0.2,5.5-4.6,2.3c-1.6-1.1-3.2-2.1-3.4-2.1c-0.4,0-5.8,9.7-5.8,10.4c0,0.2,3.1,2.1,6.9,4.3L121,60v6v6l-2.1,2.4c-2.7,3-7.5,7-16.9,13.6c-16,11.3-21.4,17.4-25,27.4c-1.3,3.8-1.4,4.7-1.4,11.8c0.1,8.8,0.7,11.1,4.6,16.8l2.2,3.2l45,0.2l45,0.1l1.2-1.4c2.1-2.4,4.8-8,5.7-11.7c0.6-2.6,0.8-5,0.6-9c-0.7-14.2-7.3-23.6-25.8-36.6c-10.1-7.1-14.4-10.6-17.8-14.3c-2.4-2.5-2.4-2.7-2.5-5.8c0-1.7,0.1-3.2,0.3-3.2c0.2,0,1.8,1,3.7,2.3c4,2.6,3.2,3,7-4l2.4-4.5l-1.7-1c-0.9-0.5-3.9-2.3-6.6-3.9l-4.9-3l-0.2-7.6l-0.2-7.5h6.7h6.7v-6.7v-6.7h-6.7h-6.7v-6.4V10h-6.4H121V16.4L121,16.4z"
                />
                <path
                    fill="#0075BA"
                    d="M88.2,163.2c0,5-0.2,8.9-0.4,8.8c-7-3.5-10.6-4.5-17-4.5c-8.1,0-14.8,2.9-20.4,8.8c-3.4,3.6-5,6.3-6.6,10.9l-1.3,3.8v27.4V246H128h85.5l-0.2-27.3c-0.2-26.6-0.3-27.4-1.3-30.7c-1.5-4.7-5.7-10.7-9.3-13.5c-6.2-4.9-11.8-6.9-19.4-6.9c-5.1,0-8.6,0.8-13.1,3.1l-3,1.5v-9v-9h-3.3h-3.3v3.3v3.3h-3.3h-3.3v-3.3v-3.3h-4.1h-4.1v3.3v3.3h-3.3H139v-3.3v-3.3h-4.1h-4.1v3.3v3.4l-3.2-0.2l-3.2-0.2l-0.2-3.2l-0.2-3.2h-3.8h-3.8l-0.2,3.2l-0.2,3.2l-3.2,0.2l-3.2,0.2v-3.4v-3.3h-4.1h-4.1l-0.2,3.2l-0.2,3.2l-3.2,0.2l-3.2,0.2v-3.4v-3.3h-3.3h-3.3L88.2,163.2L88.2,163.2z M136.1,171.8c3.8,1.8,7.4,5.4,9.3,9.3l1.5,3l0.2,24.5l0.2,24.5l-19.7-0.1l-19.6-0.2l-0.2-21.5c-0.1-13.9,0.1-22.7,0.4-24.8c1.2-7.1,5.5-12.5,12.2-15.3c2.5-1,3.6-1.2,7.8-1.1C132.4,170.3,133.6,170.6,136.1,171.8z M78.6,182.1c3.2,1.6,6.6,4.8,8,7.5c0.6,1,1.2,3.3,1.5,5.1c0.5,3.5,0.7,34.6,0.3,37l-0.3,1.4H71.7H55.4v-19.4c0-21.3,0.2-22.7,3-26.6C63,180.7,71.6,178.6,78.6,182.1z M190.5,182.1c3.6,1.7,7.1,5.6,8.4,9.2c0.8,2.4,0.9,4.6,0.9,22.2v19.5l-16.3,0.2l-16.3,0.1v-20.1c0-20.1,0-20.2,1.2-22.8c3.1-6.7,8.7-10.2,15.8-9.7C186.6,180.6,188.5,181.1,190.5,182.1z"
                />
            </g>
        </g>
    </g>
</svg>